<svg xmlns="http://www.w3.org/2000/svg" fill="none" viewBox="0 0 84 56" height="56" width="84">
<path fill="#E8E6EB" d="M83.4892 41.3573C83.4892 43.481 83.5036 45.5522 83.4696 47.6222C83.4657 47.8463 83.2265 48.1135 83.0291 48.2799C79.0228 51.6548 74.3996 53.73 69.2888 54.7283C63.9244 55.7764 58.5613 55.8118 53.2231 54.5095C49.9815 53.7182 47 52.3256 44.1257 50.6447C41.3651 49.0293 38.6097 47.3772 35.7288 46.0016C29.192 42.8796 22.3401 42.2612 15.2856 43.8819C9.91736 45.1147 5.18563 47.6078 0.980668 51.1438C0.870871 51.2368 0.745389 51.3102 0.510109 51.4727C0.510109 50.6735 0.510109 49.987 0.510109 49.2992C0.510109 48.1201 0.477432 46.9397 0.531023 45.7645C0.546708 45.4225 0.727089 44.9968 0.976747 44.7714C4.34647 41.7267 8.23381 39.5965 12.5891 38.3466C17.709 36.8767 22.9048 36.5255 28.1633 37.4649C32.4427 38.23 36.3275 39.979 40.0449 42.1918C43.3545 44.1609 46.6693 46.1248 50.3266 47.4296C56.019 49.4603 61.8213 49.9425 67.7516 48.8092C73.4428 47.7205 78.5431 45.3505 83.0056 41.6311C83.0892 41.5616 83.1729 41.4909 83.2617 41.428C83.2931 41.4057 83.3402 41.4044 83.4892 41.3625V41.3573Z"></path>
<path fill="#E8E6EB" d="M0.511451 36.5308C0.511451 34.4949 0.497073 32.5349 0.529751 30.575C0.533672 30.3444 0.751959 30.0693 0.944104 29.8977C4.84059 26.4049 9.36318 24.1161 14.4531 22.9724C20.4318 21.6295 26.3713 21.699 32.2415 23.6157C35.1589 24.5681 37.8346 26.0092 40.4671 27.5565C43.8264 29.5308 47.1896 31.496 50.9148 32.7485C56.7314 34.7045 62.6239 35.0517 68.6157 33.7442C73.9643 32.5769 78.764 30.2711 82.9834 26.7652C83.1089 26.6604 83.2487 26.5726 83.4526 26.4259C83.4683 26.7049 83.4879 26.891 83.4892 27.0783C83.4918 28.8679 83.4775 30.6588 83.4997 32.4485C83.5049 32.8625 83.3729 33.1297 83.0592 33.3917C80.1496 35.8273 76.8857 37.6234 73.2859 38.7934C67.7451 40.5935 62.0749 41.0219 56.3184 40.2292C52.103 39.6489 48.2143 38.1488 44.5374 36.0028C41.4566 34.204 38.364 32.4 35.1524 30.858C30.571 28.6596 25.6576 27.9155 20.5925 28.2063C14.6831 28.5456 9.22986 30.292 4.32428 33.6381C3.03548 34.5171 1.83163 35.5233 0.510144 36.5308H0.511451Z"></path>
<path fill="#E8E6EB" d="M74.0166 12.4234C74.0179 19.0552 68.7085 24.39 62.1167 24.3782C55.5812 24.3664 50.2887 19.0041 50.2979 12.4024C50.307 5.80204 55.5969 0.5 62.1703 0.5C68.7385 0.5 74.0153 5.81252 74.0166 12.4234Z"></path>
</svg>
